<svg width="25" height="24" viewBox="0 0 25 24" fill="none" xmlns="http://www.w3.org/2000/svg">
<g clip-path="url(#clip0_1845_41193)">
<path d="M13.95 2.72461C13.95 3.3457 13.4461 3.84961 12.825 3.84961C12.2039 3.84961 11.7 3.3457 11.7 2.72461C11.7 2.10352 12.2039 1.59961 12.825 1.59961C13.4461 1.59961 13.95 2.10352 13.95 2.72461Z" fill="#00838F"/>
<path d="M13.5502 2.59879C13.3744 2.59879 13.2191 2.47721 13.1825 2.2985C13.1415 2.09635 13.2719 1.89859 13.4755 1.85611L22.5502 0.00748037C22.7553 -0.0335353 22.9516 0.0983008 22.9926 0.300449C23.0336 0.502598 22.9032 0.701816 22.6996 0.742832L13.6249 2.59146C13.6 2.59732 13.5736 2.59879 13.5502 2.59879Z" fill="#222427"/>
<path d="M2.37522 4.87516C2.19943 4.87516 2.04416 4.75211 2.00754 4.57486C1.96652 4.37271 2.09689 4.1735 2.30051 4.13248L11.3034 2.2985C11.5085 2.25748 11.7048 2.38932 11.7458 2.59146C11.7883 2.79508 11.6565 2.99283 11.4543 3.03385L2.44992 4.86783C2.42502 4.87223 2.40012 4.87516 2.37522 4.87516Z" fill="#222427"/>
<path d="M12.5 15C12.2935 15 12.125 14.8315 12.125 14.625V3.75C12.125 3.54346 12.2935 3.375 12.5 3.375C12.7065 3.375 12.875 3.54346 12.875 3.75V14.625C12.875 14.8315 12.7065 15 12.5 15Z" fill="#222427"/>
<path d="M12.5 4.125C11.6724 4.125 11 3.45264 11 2.625C11 1.79736 11.6724 1.125 12.5 1.125C13.3276 1.125 14 1.79736 14 2.625C14 3.45264 13.3276 4.125 12.5 4.125ZM12.5 1.875C12.0869 1.875 11.75 2.21191 11.75 2.625C11.75 3.03809 12.0869 3.375 12.5 3.375C12.9131 3.375 13.25 3.03809 13.25 2.625C13.25 2.21191 12.9131 1.875 12.5 1.875Z" fill="#222427"/>
<path d="M19.25 24H5.75004C5.61967 24 5.49955 23.9326 5.43071 23.8228C5.36332 23.7114 5.356 23.5737 5.41459 23.458C6.17192 21.9419 7.69535 21 9.39018 21H15.6099C17.3047 21 18.8282 21.9419 19.5855 23.4565C19.6441 23.5737 19.6368 23.7114 19.5694 23.8228C19.5005 23.9326 19.3804 24 19.25 24ZM6.41655 23.25H18.5835C17.8951 22.3125 16.8038 21.75 15.6099 21.75H9.39018C8.19633 21.75 7.10502 22.3125 6.41655 23.25Z" fill="#222427"/>
<path d="M8.84998 12H2.09998C2.09998 14.0713 3.61169 15.75 5.47498 15.75C7.33826 15.75 8.84998 14.0713 8.84998 12Z" fill="#00838F"/>
<path d="M8.37511 12C8.22716 12 8.08507 11.9106 8.02648 11.7642L5.37511 5.13428L2.72375 11.7642C2.64611 11.9561 2.42931 12.0498 2.23595 11.9736C2.04406 11.896 1.95031 11.6777 2.02648 11.4858L5.02648 3.98584C5.08361 3.84375 5.22131 3.75 5.37511 3.75C5.52892 3.75 5.66662 3.84375 5.72375 3.98584L8.72375 11.4858C8.79992 11.6777 8.70617 11.896 8.51427 11.9736C8.46886 11.9912 8.42199 12 8.37511 12Z" fill="#222427"/>
<path d="M5.375 15.75C3.30664 15.75 1.625 13.8999 1.625 11.625C1.625 11.4185 1.79346 11.25 2 11.25H8.75C8.95654 11.25 9.125 11.4185 9.125 11.625C9.125 13.8999 7.44336 15.75 5.375 15.75ZM2.39404 12C2.55957 13.6846 3.83398 15 5.375 15C6.91602 15 8.19043 13.6846 8.35596 12H2.39404Z" fill="#222427"/>
<path d="M5.37526 14.25C4.7234 14.25 4.10524 13.9218 3.67897 13.3491C3.55446 13.1835 3.58815 12.9477 3.75514 12.8247C3.92067 12.7001 4.15505 12.7353 4.27956 12.9008C4.56374 13.2817 4.96364 13.5 5.37526 13.5C5.5818 13.5 5.75026 13.6684 5.75026 13.875C5.75026 14.0815 5.5818 14.25 5.37526 14.25Z" fill="#222427"/>
<path d="M5.375 20.2499C5.27686 20.2499 5.18018 20.2089 5.1084 20.1415C5.04102 20.0697 5 19.973 5 19.8749C5 19.7767 5.04102 19.6801 5.1084 19.6083C5.24756 19.4691 5.50244 19.4691 5.6416 19.6083C5.70898 19.6801 5.75 19.7767 5.75 19.8749C5.75 19.973 5.70898 20.0697 5.6416 20.1415C5.56982 20.2089 5.47168 20.2499 5.375 20.2499Z" fill="#222427"/>
<path d="M5.375 18.7499C5.27686 18.7499 5.18018 18.7089 5.1084 18.6415C5.04102 18.5697 5 18.473 5 18.3749C5 18.2767 5.04102 18.1801 5.1084 18.1083C5.25049 17.9691 5.49805 17.9691 5.6416 18.1083C5.70898 18.1801 5.75 18.2767 5.75 18.3749C5.75 18.473 5.70898 18.5697 5.6416 18.6415C5.56982 18.7089 5.47168 18.7499 5.375 18.7499Z" fill="#222427"/>
<path d="M5.375 17.2499C5.27686 17.2499 5.18018 17.2089 5.1084 17.1415C5.04102 17.0697 5 16.973 5 16.8749C5 16.7767 5.04102 16.6801 5.1084 16.6083C5.24756 16.4691 5.50244 16.4691 5.6416 16.6083C5.70898 16.6801 5.75 16.7767 5.75 16.8749C5.75 16.973 5.70898 17.0697 5.6416 17.1415C5.56982 17.2089 5.47168 17.2499 5.375 17.2499Z" fill="#222427"/>
<path d="M23.25 8.7998H16.5C16.5 10.8711 18.0117 12.5498 19.875 12.5498C21.7383 12.5498 23.25 10.8711 23.25 8.7998Z" fill="#00838F"/>
<path d="M22.6251 9C22.4772 9 22.3351 8.91064 22.2765 8.76416L19.6251 2.13428L16.9737 8.76416C16.8961 8.95605 16.6793 9.0498 16.486 8.97363C16.2941 8.896 16.2003 8.67773 16.2765 8.48584L19.2765 0.98584C19.3336 0.84375 19.4713 0.75 19.6251 0.75C19.7789 0.75 19.9166 0.84375 19.9737 0.98584L22.9737 8.48584C23.0499 8.67773 22.9562 8.896 22.7643 8.97363C22.7189 8.99121 22.672 9 22.6251 9Z" fill="#222427"/>
<path d="M19.625 17.2499C19.5269 17.2499 19.4302 17.2089 19.3584 17.1415C19.291 17.0697 19.25 16.973 19.25 16.8749C19.25 16.7767 19.291 16.6801 19.3584 16.6083C19.5005 16.4691 19.748 16.4691 19.8916 16.6083C19.959 16.6801 20 16.7767 20 16.8749C20 16.973 19.959 17.0697 19.8916 17.1415C19.8198 17.2089 19.7217 17.2499 19.625 17.2499Z" fill="#222427"/>
<path d="M19.625 15.7499C19.5269 15.7499 19.4302 15.7089 19.3584 15.6415C19.291 15.5697 19.25 15.473 19.25 15.3749C19.25 15.2767 19.291 15.1801 19.3584 15.1083C19.5005 14.9691 19.7524 14.9691 19.8916 15.1083C19.959 15.1801 20 15.2738 20 15.3749C20 15.473 19.959 15.5697 19.8916 15.6415C19.8198 15.7089 19.7217 15.7499 19.625 15.7499Z" fill="#222427"/>
<path d="M19.625 14.2499C19.5269 14.2499 19.4302 14.2089 19.3584 14.1415C19.291 14.0697 19.25 13.973 19.25 13.8749C19.25 13.7767 19.291 13.6801 19.3584 13.6083C19.5005 13.4691 19.7524 13.4691 19.8916 13.6083C19.959 13.6801 20 13.7767 20 13.8749C20 13.976 19.959 14.0697 19.8916 14.1415C19.8198 14.2089 19.7261 14.2499 19.625 14.2499Z" fill="#222427"/>
<path d="M19.625 12.75C17.5566 12.75 15.875 10.8999 15.875 8.625C15.875 8.41846 16.0435 8.25 16.25 8.25H23C23.2065 8.25 23.375 8.41846 23.375 8.625C23.375 10.8999 21.6934 12.75 19.625 12.75ZM16.644 9C16.8096 10.6846 18.084 12 19.625 12C21.166 12 22.4404 10.6846 22.606 9H16.644Z" fill="#222427"/>
<path d="M19.6253 11.25C18.9734 11.25 18.3552 10.9218 17.929 10.3491C17.8045 10.1835 17.8382 9.94771 18.0051 9.82466C18.1707 9.70015 18.4065 9.7353 18.5296 9.90083C18.8137 10.2817 19.2136 10.5 19.6253 10.5C19.8318 10.5 20.0003 10.6684 20.0003 10.875C20.0003 11.0815 19.8318 11.25 19.6253 11.25Z" fill="#222427"/>
<path d="M13.625 21.75H11.375C11.1685 21.75 11 21.5815 11 21.375V15.75C11 14.9224 11.6724 14.25 12.5 14.25C13.3276 14.25 14 14.9224 14 15.75V21.375C14 21.5815 13.8315 21.75 13.625 21.75ZM11.75 21H13.25V15.75C13.25 15.3369 12.9131 15 12.5 15C12.0869 15 11.75 15.3369 11.75 15.75V21Z" fill="#222427"/>
</g>
<defs>
<clipPath id="clip0_1845_41193">
<rect width="24" height="24" fill="white" transform="translate(0.5)"/>
</clipPath>
</defs>
</svg>
